<svg width="30" height="30" viewBox="0 0 30 30" fill="none" xmlns="http://www.w3.org/2000/svg">
<path fill-rule="evenodd" clip-rule="evenodd" d="M19.85 26.15C19.8875 26.35 19.7749 26.5625 19.5874 26.6375C18.1749 27.2 16.625 27.5 15.025 27.5C12.2625 27.5 9.71246 26.6125 7.64996 25.0875C7.47496 24.9625 7.425 24.7125 7.5375 24.525C8.225 23.3 10.9124 19.3625 16.8499 17.1625C17.0749 17.075 17.3249 17.1875 17.3999 17.4125C18.8874 21.4 19.5875 24.775 19.85 26.15Z" fill="#7562E0"/>
<path fill-rule="evenodd" clip-rule="evenodd" d="M27.2751 17.3626C26.7001 20.4376 24.975 23.1126 22.5625 24.9376C22.3 25.1376 21.925 24.9875 21.8625 24.675C21.6 23.325 20.9625 20.4125 19.7375 16.95C19.65 16.6875 19.8251 16.4 20.1001 16.3625C23.2126 15.9875 25.9376 16.5875 26.9626 16.8625C27.1751 16.9375 27.3126 17.1501 27.2751 17.3626Z" fill="#7562E0"/>
<path fill-rule="evenodd" clip-rule="evenodd" d="M26.9876 14.7751C25.7126 14.5501 22.4625 14.075 19.1375 14.4375C18.9375 14.4625 18.7625 14.35 18.675 14.1625C18.625 14.05 18.5875 13.9376 18.5375 13.8251C18.3375 13.3626 18.125 12.8876 17.9125 12.4251C17.8 12.2001 17.9125 11.925 18.1375 11.825C21.6375 10.3125 23.5875 8.36255 24.35 7.48755C24.5375 7.27505 24.8626 7.28757 25.0376 7.51257C26.4751 9.42507 27.3625 11.7625 27.5 14.2875C27.5125 14.6 27.2626 14.8251 26.9876 14.7751Z" fill="#7562E0"/>
<path fill-rule="evenodd" clip-rule="evenodd" d="M23.0501 5.98745C22.4001 6.77495 20.5751 8.64993 17.1126 10.0249C16.9126 10.1124 16.6751 10.0249 16.5626 9.82492C14.9626 6.92492 13.2625 4.48743 12.475 3.38743C12.2875 3.12493 12.4376 2.74994 12.7501 2.69994C13.4751 2.57494 14.2376 2.51245 15.0126 2.51245C18.0376 2.51245 20.8251 3.58744 22.9876 5.38744C23.1751 5.52494 23.2001 5.79995 23.0501 5.98745Z" fill="#7562E0"/>
<path fill-rule="evenodd" clip-rule="evenodd" d="M13.775 11.05C9.03747 12.2375 4.84991 12.4 3.32491 12.425C3.03741 12.425 2.82495 12.15 2.89995 11.875C3.79995 8.37502 6.19993 5.45002 9.36243 3.83752C9.54993 3.73752 9.78743 3.80001 9.91243 3.97501C10.5624 4.87501 12.3249 7.41252 14.0499 10.4C14.1874 10.65 14.0625 10.975 13.775 11.05Z" fill="#7562E0"/>
<path fill-rule="evenodd" clip-rule="evenodd" d="M16.1499 14.5C16.2624 14.7375 16.125 15.025 15.875 15.1125C10.3375 16.9 7.02495 21.3375 6.02495 22.8625C5.86245 23.1125 5.51245 23.125 5.32495 22.9C3.57495 20.75 2.51245 18.2875 2.51245 15.3V15.075C2.51245 14.825 2.71243 14.625 2.96243 14.6375C4.53743 14.7 9.67495 14.4875 15.0125 12.95C15.2125 12.8875 15.4374 12.9875 15.5249 13.175C15.7374 13.6125 15.9499 14.05 16.1499 14.5Z" fill="#7562E0"/>
</svg>
