<svg width="32" height="32" viewBox="0 0 32 32" fill="none" xmlns="http://www.w3.org/2000/svg">
<path d="M29.3333 21.5868C29.3333 26.4401 26.44 29.3334 21.5866 29.3334H20C19.2666 29.3334 18.6666 28.7334 18.6666 28.0001V20.3068C18.6666 19.9468 18.9599 19.6401 19.3199 19.6401L21.6666 19.6001C21.8533 19.5868 22.0133 19.4534 22.0533 19.2668L22.52 16.7201C22.56 16.4801 22.3733 16.2534 22.12 16.2534L19.2799 16.2934C18.9066 16.2934 18.6133 16.0001 18.6 15.6401L18.5466 12.3734C18.5466 12.1601 18.7199 11.9734 18.9466 11.9734L22.1466 11.9201C22.3733 11.9201 22.5466 11.7468 22.5466 11.5201L22.4933 8.32007C22.4933 8.0934 22.32 7.92008 22.0933 7.92008L18.4933 7.97343C16.28 8.01343 14.52 9.82675 14.56 12.0401L14.6266 15.7067C14.64 16.0801 14.3466 16.3734 13.9733 16.3868L12.3733 16.4134C12.1466 16.4134 11.9733 16.5867 11.9733 16.8134L12.0133 19.3468C12.0133 19.5734 12.1866 19.7467 12.4133 19.7467L14.0133 19.7201C14.3866 19.7201 14.6799 20.0134 14.6933 20.3734L14.8133 27.9734C14.8266 28.7201 14.2266 29.3334 13.4799 29.3334H10.4133C5.55996 29.3334 2.66663 26.4401 2.66663 21.5734V10.4134C2.66663 5.56008 5.55996 2.66675 10.4133 2.66675H21.5866C26.44 2.66675 29.3333 5.56008 29.3333 10.4134V21.5868V21.5868Z" fill="#7562E0"/>
</svg>
