<svg width="32" height="32" viewBox="0 0 32 32" fill="none" xmlns="http://www.w3.org/2000/svg">
<path fill-rule="evenodd" clip-rule="evenodd" d="M21.1733 27.8933C21.2133 28.1066 21.0933 28.3332 20.8933 28.4132C19.3866 29.0132 17.7334 29.3332 16.0267 29.3332C13.08 29.3332 10.36 28.3866 8.16 26.7599C7.97333 26.6266 7.92004 26.3599 8.04004 26.1599C8.77337 24.8532 11.64 20.6533 17.9733 18.3066C18.2133 18.2133 18.48 18.3332 18.56 18.5732C20.1466 22.8266 20.8933 26.4266 21.1733 27.8933Z" fill="#7562E0"/>
<path fill-rule="evenodd" clip-rule="evenodd" d="M29.0934 18.52C28.48 21.8 26.64 24.6533 24.0667 26.6C23.7867 26.8133 23.3867 26.6533 23.32 26.32C23.04 24.88 22.36 21.7733 21.0533 18.08C20.96 17.8 21.1467 17.4933 21.44 17.4533C24.76 17.0533 27.6667 17.6933 28.76 17.9866C28.9867 18.0666 29.1334 18.2933 29.0934 18.52Z" fill="#7562E0"/>
<path fill-rule="evenodd" clip-rule="evenodd" d="M28.7867 15.76C27.4267 15.52 23.96 15.0133 20.4133 15.4C20.2 15.4267 20.0134 15.3067 19.92 15.1067C19.8667 14.9867 19.8267 14.8667 19.7734 14.7467C19.56 14.2534 19.3334 13.7467 19.1067 13.2534C18.9867 13.0134 19.1067 12.72 19.3467 12.6134C23.08 11 25.16 8.92002 25.9733 7.98668C26.1733 7.76002 26.5201 7.77338 26.7067 8.01338C28.2401 10.0534 29.1867 12.5467 29.3334 15.24C29.3467 15.5734 29.0801 15.8134 28.7867 15.76Z" fill="#7562E0"/>
<path fill-rule="evenodd" clip-rule="evenodd" d="M24.5867 6.3866C23.8934 7.2266 21.9467 9.22657 18.2534 10.6932C18.0401 10.7866 17.7867 10.6932 17.6667 10.4799C15.9601 7.38657 14.1467 4.78657 13.3067 3.61324C13.1067 3.33324 13.2667 2.93326 13.6001 2.87992C14.3734 2.74659 15.1867 2.67993 16.0134 2.67993C19.2401 2.67993 22.2134 3.82658 24.5201 5.74658C24.7201 5.89325 24.7467 6.1866 24.5867 6.3866Z" fill="#7562E0"/>
<path fill-rule="evenodd" clip-rule="evenodd" d="M14.6934 11.7867C9.64003 13.0534 5.1733 13.2267 3.54663 13.2534C3.23997 13.2534 3.01335 12.96 3.09335 12.6667C4.05335 8.93338 6.61332 5.81339 9.98666 4.09339C10.1867 3.98673 10.44 4.05337 10.5733 4.24004C11.2667 5.20004 13.1467 7.90673 14.9867 11.0934C15.1333 11.3601 15 11.7067 14.6934 11.7867Z" fill="#7562E0"/>
<path fill-rule="evenodd" clip-rule="evenodd" d="M17.2267 15.4667C17.3467 15.72 17.2001 16.0266 16.9334 16.12C11.0267 18.0266 7.49338 22.76 6.42672 24.3867C6.25338 24.6533 5.88005 24.6667 5.68005 24.4267C3.81339 22.1333 2.68005 19.5066 2.68005 16.32V16.08C2.68005 15.8133 2.89337 15.6 3.16003 15.6133C4.84003 15.68 10.3201 15.4533 16.0134 13.8133C16.2267 13.7466 16.4667 13.8533 16.56 14.0533C16.7867 14.52 17.0134 14.9867 17.2267 15.4667Z" fill="#7562E0"/>
</svg>
