<svg width="32" height="32" viewBox="0 0 32 32" fill="none" xmlns="http://www.w3.org/2000/svg">
<path d="M21.5866 2.66675H10.4133C5.55996 2.66675 2.66663 5.56008 2.66663 10.4134V21.5734C2.66663 26.4401 5.55996 29.3334 10.4133 29.3334H21.5733C26.4266 29.3334 29.32 26.4401 29.32 21.5867V10.4134C29.3333 5.56008 26.44 2.66675 21.5866 2.66675ZM16 21.1734C13.1466 21.1734 10.8266 18.8534 10.8266 16.0001C10.8266 13.1467 13.1466 10.8267 16 10.8267C18.8533 10.8267 21.1733 13.1467 21.1733 16.0001C21.1733 18.8534 18.8533 21.1734 16 21.1734ZM23.8933 9.17342C23.8266 9.33342 23.7333 9.48008 23.6133 9.61341C23.48 9.73341 23.3333 9.82675 23.1733 9.89342C23.0133 9.96008 22.84 10.0001 22.6666 10.0001C22.3066 10.0001 21.9733 9.86675 21.72 9.61341C21.6 9.48008 21.5066 9.33342 21.44 9.17342C21.3733 9.01342 21.3333 8.84008 21.3333 8.66675C21.3333 8.49341 21.3733 8.32008 21.44 8.16008C21.5066 7.98675 21.6 7.85341 21.72 7.72008C22.0266 7.41341 22.4933 7.26675 22.92 7.36008C23.0133 7.37341 23.0933 7.40008 23.1733 7.44008C23.2533 7.46675 23.3333 7.50675 23.4133 7.56008C23.48 7.60008 23.5466 7.66675 23.6133 7.72008C23.7333 7.85341 23.8266 7.98675 23.8933 8.16008C23.96 8.32008 24 8.49341 24 8.66675C24 8.84008 23.96 9.01342 23.8933 9.17342Z" fill="#7562E0"/>
</svg>
